<svg width="0" height="0" class="hidden">
  <symbol xmlns="http://www.w3.org/2000/svg" viewBox="0 0 16 11" id="tick">
    <defs></defs>
    <path id="Shape_10_copy_5" d="M2,4L6,8l8-8"></path>
  </symbol>
  <symbol xmlns="http://www.w3.org/2000/svg" viewBox="0 0 50 2" id="line">
    <path fill="#63c3ef" d="M0 0h50v2H0z"></path>
  </symbol>
  <symbol id="search" xmlns="http://www.w3.org/2000/svg" viewBox="0 0 21.8 23.8">
    <defs></defs>
    <path d="M11,17.9a8.7,8.7,0,0,0,.8,4.8,1,1,0,0,0,1.2.4.8.8,0,0,0,.4-1.2,8.3,8.3,0,0,1-.7-3.8,7.6,7.6,0,0,1,15.2,1.1A7.7,7.7,0,0,1,16.1,25a.8.8,0,0,0-1.2.2.9.9,0,0,0,.2,1.3A10,10,0,0,0,19.6,28a9.3,9.3,0,0,0,6.1-1.7l5.5,6.4a.9.9,0,0,0,.6.3.7.7,0,0,0,.7-.2.9.9,0,0,0,.1-1.2L27,25.2a8.9,8.9,0,0,0,2.6-5.8A9.3,9.3,0,1,0,11,17.9Z" transform="translate(-10.9 -9.3)"></path>
  </symbol>
  <symbol id="chevron" xmlns="http://www.w3.org/2000/svg" viewBox="0 0 51 51">
    <defs></defs>
    <circle cx="25.5" cy="25.5" r="25.5"></circle>
    <rect x="24.4" y="27.9" width="1.6" height="15.24" rx="0.8" transform="matrix(0.78, -0.63, 0.63, 0.78, -21.26, 15.39)"></rect>
    <rect x="33.3" y="27.9" width="1.6" height="15.24" rx="0.8" transform="translate(24 -21.9) rotate(37.3)"></rect>
  </symbol>
  <symbol version="1.1" id="settings" xmlns="http://www.w3.org/2000/svg" xmlns:xlink="http://www.w3.org/1999/xlink" x="0px" y="0px" xml:space="preserve" viewBox="0 0 485.656 485.656">
    <g>
      <g>
        <path d="M334.512,312h-200c-2.122,0-4.156,0.844-5.656,2.344l-96,96l11.312,11.312L137.824,328h187.888
			c-1.664,9.496-6.888,24-23.2,24h-88v16h88c31.64,0,40-31.4,40-48C342.512,315.582,338.93,312,334.512,312z"></path>
      </g>
    </g>
    <g>
      <g>
        <path d="M436.168,258.344c-3.124-3.123-8.188-3.123-11.312,0l-72,72l11.312,11.312l65.712-65.712
			c10.828,14.37,8.629,34.68-5.024,46.4L331.2,416H166.512c-2.122,0-4.156,0.844-5.656,2.344l-56,56l11.312,11.312L169.824,432
			h164.688c2.122,0,4.156-0.844,5.656-2.344l96-96C465.96,303.864,449.192,271.368,436.168,258.344z"></path>
      </g>
    </g>
    <g>
      <g>
        <path d="M390.512,112H361.76c-2.193-7.348-5.139-14.45-8.792-21.192l20.344-20.344c3.123-3.124,3.123-8.188,0-11.312
			L339.36,25.208c-3.124-3.123-8.188-3.123-11.312,0l-20.344,20.344c-6.741-3.658-13.843-6.607-21.192-8.8V8c0-4.418-3.582-8-8-8
			h-48c-4.418,0-8,3.582-8,8v28.752c-7.349,2.193-14.451,5.142-21.192,8.8l-20.344-20.344c-3.124-3.123-8.188-3.123-11.312,0
			l-33.952,33.944c-3.123,3.124-3.123,8.188,0,11.312l20.352,20.344c-3.655,6.742-6.604,13.844-8.8,21.192h-28.752
			c-4.418,0-8,3.582-8,8v48c0,4.418,3.582,8,8,8h28.752c2.193,7.348,5.139,14.45,8.792,21.192l-20.344,20.344
			c-3.123,3.124-3.123,8.188,0,11.312l33.952,33.952c3.174,3.001,8.138,3.001,11.312,0l20.344-20.352
			c6.742,3.655,13.844,6.604,21.192,8.8V280c0,4.418,3.582,8,8,8h48c4.418,0,8-3.582,8-8v-28.752
			c7.348-2.194,14.449-5.14,21.192-8.792l20.344,20.344c1.5,1.5,3.534,2.344,5.656,2.344s4.156-0.844,5.656-2.344l33.944-33.952
			c3.123-3.124,3.123-8.188,0-11.312l-20.344-20.344c3.655-6.742,6.604-13.844,8.8-21.192h28.752c4.418,0,8-3.582,8-8v-48
			C398.512,115.582,394.93,112,390.512,112z M382.513,160h-26.888c-3.709,0.001-6.931,2.551-7.784,6.16
			c-2.366,9.945-6.309,19.447-11.68,28.144c-1.95,3.157-1.473,7.241,1.152,9.864l19.032,19.024l-22.64,22.64l-19.024-19.04
			c-2.623-2.625-6.707-3.102-9.864-1.152c-8.695,5.378-18.197,9.325-28.144,11.688c-3.609,0.853-6.159,4.075-6.16,7.784V272h-32
			v-26.88c-0.001-3.709-2.551-6.931-6.16-7.784c-9.947-2.363-19.449-6.31-28.144-11.688c-3.157-1.95-7.241-1.473-9.864,1.152
			l-19.024,19.04l-22.64-22.64l19.032-19.04c2.625-2.623,3.102-6.707,1.152-9.864c-5.371-8.698-9.314-18.199-11.68-28.144
			c-0.853-3.609-4.075-6.159-7.784-6.16h-26.888v-32H153.4c3.709-0.001,6.931-2.551,7.784-6.16
			c2.366-9.945,6.309-19.446,11.68-28.144c1.95-3.157,1.473-7.241-1.152-9.864L152.68,64.8l22.632-22.624l19.032,19.032
			c2.623,2.625,6.707,3.102,9.864,1.152c8.693-5.379,18.196-9.323,28.144-11.68c3.609-0.853,6.159-4.075,6.16-7.784V16h32v26.896
			c0.002,3.711,2.555,6.934,6.168,7.784c9.948,2.357,19.451,6.301,28.144,11.68c3.157,1.95,7.241,1.473,9.864-1.152l19.024-19.032
			L356.345,64.8l-19.032,19.032c-2.625,2.623-3.102,6.707-1.152,9.864c5.371,8.698,9.314,18.199,11.68,28.144
			c0.853,3.609,4.075,6.159,7.784,6.16h26.888V160z"></path>
      </g>
    </g>
    <g>
      <g>
        <path d="M254.512,96c-26.51,0-48,21.49-48,48s21.491,48,48,48c26.499-0.026,47.974-21.501,48-48
			C302.512,117.49,281.022,96,254.512,96z M254.512,176c-17.673,0-32-14.327-32-32c0-17.673,14.327-32,32-32
			c17.673,0,32,14.327,32,32C286.512,161.673,272.185,176,254.512,176z"></path>
      </g>
    </g>
    <g></g>
    <g></g>
    <g></g>
    <g></g>
    <g></g>
    <g></g>
    <g></g>
    <g></g>
    <g></g>
    <g></g>
    <g></g>
    <g></g>
    <g></g>
    <g></g>
    <g></g>
  </symbol>
  <symbol xmlns="http://www.w3.org/2000/svg" viewBox="0 0 64 64" id="computer">
    <g id="Computer-Engineer-Coding-Programing-Configulation">
      <path d="m13.293 14.293-3 3a1 1 0 0 0 0 1.414l3 3 1.414-1.414-2.293-2.293 2.293-2.293z"></path>
      <path d="m14.228 17h8.544v2h-8.544z" transform="matrix(.351 -.936 .936 .351 -4.85 29.002)"></path>
      <path d="m23.707 21.707 3-3a1 1 0 0 0 0-1.414l-3-3-1.414 1.414 2.293 2.293-2.293 2.293z"></path>
      <path d="m10 26h4v2h-4z"></path>
      <path d="m16 26h10v2h-10z"></path>
      <path d="m12 30h4v2h-4z"></path>
      <path d="m18 30h10v2h-10z"></path>
      <path d="m30 30h2v2h-2z"></path>
      <path d="m12 34h4v2h-4z"></path>
      <path d="m18 34h10v2h-10z"></path>
      <path d="m30 34h2v2h-2z"></path>
      <path d="m61.142 13.01-2.682-.383a10.86 10.86 0 0 0 -.679-1.639l1.625-2.166a1 1 0 0 0 -.093-1.307l-2.828-2.828a1 1 0 0 0 -1.306-.093l-2.167 1.624a10.9 10.9 0 0 0 -1.639-.678l-.383-2.682a1 1 0 0 0 -.99-.858h-4a1 1 0 0 0 -.99.858l-.383 2.682a10.855 10.855 0 0 0 -1.639.678l-2.167-1.624a1 1 0 0 0 -1.306.093l-2.828 2.828a1 1 0 0 0 -.093 1.307l1.625 2.166a10.86 10.86 0 0 0 -.679 1.639l-2.682.383a1 1 0 0 0 -.858.99v4a1 1 0 0 0 .858.99l2.682.383a10.86 10.86 0 0 0 .679 1.639l-1.625 2.166a1 1 0 0 0 .093 1.307l2.828 2.828a1 1 0 0 0 1.306.093l2.167-1.624a10.855 10.855 0 0 0 1.639.678l.383 2.682a1 1 0 0 0 .99.858h4a1 1 0 0 0 .99-.858l.383-2.682a10.9 10.9 0 0 0 1.639-.678l2.167 1.624a1 1 0 0 0 1.306-.093l2.828-2.828a1 1 0 0 0 .093-1.307l-1.625-2.166a10.86 10.86 0 0 0 .679-1.639l2.682-.383a1 1 0 0 0 .858-.99v-4a1 1 0 0 0 -.858-.99zm-1.142 4.123-2.463.352a1 1 0 0 0 -.827.742 8.923 8.923 0 0 1 -.977 2.357 1 1 0 0 0 .061 1.111l1.492 1.99-1.6 1.6-1.991-1.492a1 1 0 0 0 -1.11-.06 8.859 8.859 0 0 1 -2.356.975 1 1 0 0 0 -.744.828l-.352 2.464h-2.266l-.351-2.463a1 1 0 0 0 -.744-.828 8.859 8.859 0 0 1 -2.356-.975 1 1 0 0 0 -1.11.06l-1.991 1.492-1.6-1.6 1.492-1.99a1 1 0 0 0 .061-1.111 8.923 8.923 0 0 1 -.977-2.357 1 1 0 0 0 -.827-.742l-2.464-.353v-2.266l2.463-.352a1 1 0 0 0 .827-.742 8.923 8.923 0 0 1 .977-2.357 1 1 0 0 0 -.061-1.111l-1.492-1.99 1.6-1.6 1.991 1.492a1 1 0 0 0 1.11.06 8.859 8.859 0 0 1 2.356-.975 1 1 0 0 0 .744-.828l.352-2.464h2.266l.351 2.463a1 1 0 0 0 .744.828 8.859 8.859 0 0 1 2.356.975 1 1 0 0 0 1.11-.06l1.991-1.492 1.6 1.6-1.492 1.99a1 1 0 0 0 -.061 1.111 8.923 8.923 0 0 1 .977 2.357 1 1 0 0 0 .827.742l2.464.353z"></path>
      <path d="m48 10a6 6 0 1 0 6 6 6.006 6.006 0 0 0 -6-6zm0 10a4 4 0 1 1 4-4 4 4 0 0 1 -4 4z"></path>
      <path d="m52 40h-48v-25a3 3 0 0 1 3-3h28v-2h-28a5.006 5.006 0 0 0 -5 5v30a5.006 5.006 0 0 0 5 5h12.867l-.75 6h-2.117a2 2 0 0 0 -2 2v2a2 2 0 0 0 2 2h22a2 2 0 0 0 2-2v-2a2 2 0 0 0 -2-2h-2.117l-.75-6h12.867a5.006 5.006 0 0 0 5-5v-16h-2zm-13 20h-22v-2h22zm-4.133-4h-13.734l.75-6h12.234zm14.133-8h-42a3 3 0 0 1 -3-3v-3h48v3a3 3 0 0 1 -3 3z"></path>
      <path d="m46 44h2v2h-2z"></path>
    </g>
  </symbol>
</svg>